<svg width="389" height="650" viewBox="0 0 389 650" fill="none" xmlns="http://www.w3.org/2000/svg">
<path fill-rule="evenodd" clip-rule="evenodd" d="M-74.579 -14.2977C-17.22 -43.7473 49.7802 -12.0367 113.922 -5.39136C206.881 4.23969 356.923 -56.066 384.694 33.285C416.53 135.71 231.045 186.835 206.08 291.114C188.74 363.542 288.551 425.609 273.314 498.511C255.114 585.584 198.484 668.326 118.951 707.967C32.9017 750.857 -109.065 795.826 -162.329 715.648C-230.687 612.75 -46.5804 460.939 -113.948 357.389C-181.465 253.608 -431.074 375.907 -461.452 255.865C-487.862 151.506 -257.148 201.425 -168.995 139.865C-118.375 104.516 -129.499 13.8994 -74.579 -14.2977Z" fill="white" fill-opacity="0.2"/>
</svg>
