<svg width="425" height="650" viewBox="0 0 425 650" fill="none" xmlns="http://www.w3.org/2000/svg">
<path fill-rule="evenodd" clip-rule="evenodd" d="M537.988 568.714C494.136 581.755 478.418 634.018 443.47 663.539C360.373 733.733 300.009 879.973 193.05 860.091C99.0661 842.621 127.241 688.073 93.7556 598.533C65.3547 522.59 -32.7314 443.45 11.936 375.798C64.1861 296.662 228.229 390.922 282.278 313.004C358.724 202.8 205.992 -17.383 326.093 -77.0934C429.263 -128.386 477.942 87.3222 536.037 186.843C565.416 237.17 532.609 314.474 576.827 352.432C676.983 438.408 947.991 390.548 924.664 520.449C901.13 651.502 665.612 530.764 537.988 568.714Z" fill="white" fill-opacity="0.2"/>
</svg>
