<svg width="24" height="25" viewBox="0 0 24 25" fill="none" xmlns="http://www.w3.org/2000/svg">
<path d="M21 8V21.5H7.5V8H21ZM21 6.5H7.5C7.10218 6.5 6.72064 6.65804 6.43934 6.93934C6.15804 7.22064 6 7.60218 6 8V21.5C6 21.8978 6.15804 22.2794 6.43934 22.5607C6.72064 22.842 7.10218 23 7.5 23H21C21.3978 23 21.7794 22.842 22.0607 22.5607C22.342 22.2794 22.5 21.8978 22.5 21.5V8C22.5 7.60218 22.342 7.22064 22.0607 6.93934C21.7794 6.65804 21.3978 6.5 21 6.5Z" fill="white"/>
<path d="M3 14H1.5V3.5C1.5 3.10218 1.65804 2.72064 1.93934 2.43934C2.22064 2.15804 2.60218 2 3 2H13.5V3.5H3V14Z" fill="white"/>
</svg>
